<svg xmlns="http://www.w3.org/2000/svg" xmlns:xlink="http://www.w3.org/1999/xlink" width="76" height="57" viewBox="0 0 76 57">
    <defs>
        <path id="prefix__a" d="M0 0L75.701 0 75.701 57 0 57z"/>
    </defs>
    <g fill="none" fill-rule="evenodd">
        <mask id="prefix__b" fill="#fff">
            <use xlink:href="#prefix__a"/>
        </mask>
        <path fill="#697075" d="M72.858 54.906H2.843c-.413 0-.748-.336-.748-.749V8.78h71.511v45.378c0 .413-.335.749-.748.749M2.843 2.094h70.015c.406 0 .748.343.748.749v3.842H2.095V2.843c0-.406.342-.749.748-.749M72.858 0H2.843C1.275 0 0 1.275 0 2.843v51.314C0 55.725 1.275 57 2.843 57h70.015c1.568 0 2.843-1.275 2.843-2.843V2.843C75.7 1.275 74.426 0 72.858 0" mask="url(#prefix__b)"/>
        <path fill="#697075" d="M6.963 4.294c0 .594-.481 1.075-1.075 1.075s-1.076-.48-1.076-1.075c0-.594.482-1.075 1.076-1.075.594 0 1.075.48 1.075 1.075M10.485 4.294c0 .594-.482 1.075-1.075 1.075-.594 0-1.076-.48-1.076-1.075 0-.594.482-1.075 1.076-1.075.593 0 1.075.48 1.075 1.075M13.857 4.294c0 .594-.482 1.075-1.075 1.075-.594 0-1.076-.48-1.076-1.075 0-.594.482-1.075 1.076-1.075.593 0 1.075.48 1.075 1.075"/>
        <path fill="#0055FB" d="M16.14 21.01c-.076-.031-.158-.054-.247-.066-.089-.012-.172-.018-.248-.018h-.714v.974h.847c.073 0 .146-.008.22-.024.075-.016.143-.044.203-.085.06-.04.11-.092.149-.157.038-.064.057-.143.057-.236 0-.1-.025-.182-.076-.245-.05-.062-.114-.11-.19-.142M23.081 20.993L24.128 20.993 23.602 19.662zM15.83 20.103c.07-.016.133-.042.19-.078.056-.037.102-.085.136-.146.034-.06.051-.133.051-.217 0-.09-.019-.163-.057-.221-.038-.059-.088-.104-.148-.136-.06-.033-.13-.056-.206-.07-.077-.014-.151-.021-.224-.021h-.641v.914h.683c.073 0 .145-.009.215-.025M19.965 19.302c-.069-.035-.147-.058-.236-.07-.089-.012-.176-.018-.26-.018h-.617v.974h.556c.085 0 .175-.003.27-.009.094-.006.18-.024.257-.054.076-.03.14-.078.19-.143.05-.064.076-.155.076-.272 0-.109-.022-.196-.067-.26-.044-.065-.1-.114-.17-.148M33.78 19.589c-.134-.1-.29-.176-.47-.227-.18-.05-.368-.075-.565-.075h-.557v2.54h.49c.218 0 .42-.021.608-.066.188-.044.35-.118.487-.22.137-.104.245-.239.324-.406.079-.167.118-.372.118-.614 0-.21-.04-.392-.118-.548-.079-.155-.184-.283-.318-.384"/>
        <path fill="#0055FB" d="M36.366 17.524l-.298.218-.301-.412-.29.394-.291-.219.3-.39-.476-.166.115-.34.47.168v-.495h.365v.495l.47-.154.108.34-.47.151.298.41zm-1.367 3.962c-.132.264-.308.486-.53.666-.222.18-.478.315-.768.408-.291.093-.596.14-.914.14h-1.543v-4.285h1.416c.343 0 .668.038.977.115.309.077.578.2.808.372.23.172.412.395.547.669.136.274.203.607.203.998 0 .347-.065.653-.196.917zm-4.626 1.213h-1.235l-1.87-3.05h-.012v3.05h-.944v-4.284h1.283l1.822 2.977h.012v-2.977h.944v4.284zm-5.555 0l-.37-.908h-1.663l-.357.908h-1.041l1.852-4.284h.78l1.864 4.284h-1.065zm-4.605 0l-.895-1.712h-.466v1.712h-.945v-4.284h1.659c.217 0 .424.021.62.064.196.042.367.113.514.211.147.1.264.232.351.4.087.167.13.376.13.626 0 .303-.078.56-.236.772-.157.211-.387.346-.69.402l1.09 1.81h-1.132zm-3.007-.626c-.097.151-.222.273-.375.366-.154.093-.326.16-.518.2-.191.04-.382.06-.571.06h-1.755v-4.284h1.597c.186 0 .372.013.56.04.187.026.356.078.505.157.15.078.27.188.363.33.093.14.14.328.14.562 0 .242-.068.443-.203.602-.135.16-.314.274-.536.342v.012c.141.02.27.06.384.118.115.059.214.133.297.224.082.091.146.197.19.318.045.12.067.25.067.387 0 .226-.048.414-.145.566zm23.989-3.725l-5.174-4.376c-.383-.324-.868-.502-1.37-.502h-21.4c-1.171 0-2.121.95-2.121 2.122v8.751c0 1.172.95 2.122 2.121 2.122h21.4c.502 0 .987-.178 1.37-.502l5.174-4.376c1.002-.847 1.002-2.392 0-3.24z"/>
        <path fill="#697075" d="M24.295 40.635c.661 0 1.197.536 1.197 1.197s-.536 1.197-1.197 1.197c-.66 0-1.197-.536-1.197-1.197 0-.66.536-1.197 1.197-1.197M12.327 40.635h7.18c.662 0 1.198.536 1.198 1.197s-.536 1.197-1.197 1.197h-7.181c-.661 0-1.197-.536-1.197-1.197 0-.66.536-1.197 1.197-1.197M12.327 35.848h11.968c.661 0 1.197.536 1.197 1.197s-.536 1.197-1.197 1.197H12.327c-.661 0-1.197-.536-1.197-1.197s.536-1.197 1.197-1.197M28.846 35.848h11.969c.66 0 1.197.536 1.197 1.197s-.536 1.197-1.197 1.197H28.846c-.66 0-1.197-.536-1.197-1.197s.536-1.197 1.197-1.197M12.327 45.443h22.44c.662 0 1.198.536 1.198 1.197s-.536 1.197-1.197 1.197H12.327c-.661 0-1.197-.536-1.197-1.197 0-.66.536-1.197 1.197-1.197M55.86 45.443c-3.736.004-6.85-2.857-7.163-6.58-.313-3.723 2.282-7.063 5.966-7.682v7.081c0 .661.535 1.197 1.196 1.197h7.082c-.588 3.453-3.579 5.98-7.082 5.984m8.378-8.377h-7.18v-7.182c0-.66-.537-1.196-1.198-1.196-5.288 0-9.574 4.286-9.574 9.574 0 5.289 4.286 9.575 9.574 9.575 5.289 0 9.575-4.286 9.575-9.575 0-.66-.536-1.196-1.197-1.196"/>
        <path fill="#697075" d="M60.647 33.475V27.59c3.011.515 5.37 2.874 5.885 5.885h-5.885zm-1.197-8.378c-.661 0-1.197.536-1.197 1.197v8.378c0 .66.536 1.197 1.197 1.197h8.378c.66 0 1.197-.536 1.197-1.197-.006-5.285-4.29-9.57-9.575-9.575zM49.866 15.837h.019c.655 0 1.187.531 1.187 1.187v.019c0 .656-.532 1.187-1.187 1.187h-.02c-.655 0-1.187-.531-1.187-1.187v-.019c0-.656.532-1.187 1.188-1.187M54.653 15.837h11.988c.655 0 1.187.531 1.187 1.187v.019c0 .656-.532 1.187-1.187 1.187H54.653c-.656 0-1.187-.531-1.187-1.187v-.019c0-.656.531-1.187 1.187-1.187M49.866 20.624h2.412c.656 0 1.188.532 1.188 1.187v.02c0 .655-.532 1.187-1.188 1.187h-2.412c-.656 0-1.188-.532-1.188-1.188v-.019c0-.655.532-1.187 1.188-1.187"/>
    </g>
</svg>
