<svg xmlns="http://www.w3.org/2000/svg" xmlns:xlink="http://www.w3.org/1999/xlink" width="76" height="57" viewBox="0 0 76 57">
    <defs>
        <path id="prefix__a" d="M0 0L75.701 0 75.701 57 0 57z"/>
        <path id="prefix__c" d="M0 57L75.701 57 75.701 0 0 0z"/>
    </defs>
    <g fill="none" fill-rule="evenodd">
        <mask id="prefix__b" fill="#fff">
            <use xlink:href="#prefix__a"/>
        </mask>
        <path fill="#697075" d="M72.858 54.905H2.843c-.413 0-.748-.335-.748-.748V8.78h71.511v45.378c0 .413-.335.748-.748.748M2.843 2.095h70.015c.406 0 .748.342.748.747v3.843H2.095V2.842c0-.405.342-.748.748-.748M72.858 0H2.843C1.275 0 0 1.275 0 2.842v51.315C0 55.725 1.275 57 2.843 57h70.015c1.568 0 2.843-1.275 2.843-2.843V2.842C75.7 1.275 74.426 0 72.858 0" mask="url(#prefix__b)"/>
        <path fill="#697075" d="M6.963 4.294c0 .594-.481 1.076-1.075 1.076s-1.076-.482-1.076-1.076c0-.594.482-1.075 1.076-1.075.594 0 1.075.481 1.075 1.075M10.485 4.294c0 .594-.482 1.076-1.075 1.076-.594 0-1.076-.482-1.076-1.076 0-.594.482-1.075 1.076-1.075.593 0 1.075.481 1.075 1.075M13.857 4.294c0 .594-.482 1.076-1.075 1.076-.594 0-1.076-.482-1.076-1.076 0-.594.482-1.075 1.076-1.075.593 0 1.075.481 1.075 1.075"/>
        <mask id="prefix__d" fill="#fff">
            <use xlink:href="#prefix__c"/>
        </mask>
        <path fill="#0055FB" d="M14.611 16.524h2.194V14.33h-2.194v2.194zm3.291-4.388h-4.388c-.605 0-1.097.491-1.097 1.097v4.388c0 .606.491 1.097 1.097 1.097h4.388c.606 0 1.097-.491 1.097-1.097v-4.388c0-.606-.49-1.097-1.097-1.097zM22.29 16.524L25.581 16.524 25.581 14.33 22.29 14.33zM27.775 16.524L41.762 16.524 41.762 14.33 27.775 14.33zM14.611 24.851h2.194v-2.194h-2.194v2.194zm3.291-4.388h-4.388c-.605 0-1.097.491-1.097 1.097v4.388c0 .606.491 1.097 1.097 1.097h4.388c.606 0 1.097-.49 1.097-1.097V21.56c0-.606-.49-1.097-1.097-1.097zM22.29 24.851L25.581 24.851 25.581 22.657 22.29 22.657zM27.775 24.851L41.762 24.851 41.762 22.657 27.775 22.657zM14.611 33.178h2.194v-2.193h-2.194v2.193zm3.291-4.387h-4.388c-.605 0-1.097.49-1.097 1.096v4.389c0 .605.491 1.096 1.097 1.097h4.388c.606 0 1.097-.492 1.097-1.097v-4.389c0-.605-.49-1.096-1.097-1.096zM22.29 33.178L25.581 33.178 25.581 30.985 22.29 30.985zM27.775 33.178L41.762 33.178 41.762 30.985 27.775 30.985z" mask="url(#prefix__d)"/>
        <path fill="#697075" d="M14.811 48.565H60.89v-8.08H14.81v8.08zM49.52 38.092h11.37v-23.04H49.52v23.04zM13.614 50.958h48.473c.66 0 1.196-.536 1.196-1.197V13.856c0-.661-.535-1.197-1.196-1.197H48.323c-.661 0-1.197.536-1.197 1.197v24.236H13.614c-.66 0-1.197.536-1.197 1.197v10.472c0 .661.536 1.197 1.197 1.197z" mask="url(#prefix__d)"/>
    </g>
</svg>
