<svg xmlns="http://www.w3.org/2000/svg" width="75" height="57" viewBox="0 0 75 57">
    <g fill="none" fill-rule="evenodd">
        <path fill="#0055FB" d="M30.482 30.706h2.372V15.291h-2.372v15.415zm-9.486 0h2.372V18.848h-2.372v11.858zm-9.486 0h2.371v-5.929H11.51v5.929zm23.715-16.6c0-.656-.53-1.187-1.186-1.187h-4.743c-.654 0-1.185.531-1.185 1.186v16.601h-2.372V17.663c0-.655-.53-1.186-1.186-1.186H19.81c-.655 0-1.186.53-1.186 1.186v13.043h-2.371v-7.115c0-.654-.531-1.185-1.186-1.185h-4.743c-.655 0-1.186.53-1.186 1.185v7.115H7.953v2.372H36.41v-2.372h-1.186v-16.6zM54.198 47.307c-3.701.003-6.787-2.832-7.097-6.52-.31-3.688 2.26-6.997 5.91-7.611v7.016c0 .655.532 1.186 1.187 1.186h7.016c-.583 3.421-3.546 5.924-7.016 5.929m8.3-8.3h-7.115v-7.115c0-.655-.53-1.186-1.185-1.186-5.24 0-9.487 4.247-9.487 9.486 0 5.24 4.247 9.486 9.487 9.486 5.239 0 9.486-4.246 9.486-9.486 0-.655-.531-1.186-1.186-1.186"/>
        <path fill="#0055FB" d="M58.94 35.45v-5.831c2.984.51 5.321 2.847 5.831 5.83h-5.83zm-1.185-8.301c-.655 0-1.186.53-1.186 1.185v8.3c0 .656.531 1.187 1.186 1.187h8.3c.655 0 1.186-.531 1.186-1.186-.006-5.236-4.25-9.48-9.486-9.486z"/>
        <path fill="#697075" d="M34.04 35.45c-1.31 0-2.372 1.061-2.372 2.37.003.266.05.53.142.78l-4.45 5.194c-.144-.028-.29-.043-.435-.044-.338 0-.671.075-.978.217l-4.974-3.558c.007-.074.023-.146.023-.221.008-.905-.5-1.734-1.308-2.14-.808-.406-1.777-.316-2.497.23-.72.547-1.067 1.456-.894 2.343l-5.194 4.457c-.25-.092-.513-.14-.779-.143-1.012-.009-1.921.62-2.27 1.57-.349.95-.062 2.016.716 2.664.778.648 1.88.736 2.75.221.872-.516 1.325-1.523 1.132-2.517l5.193-4.452c.572.213 1.205.186 1.757-.074l4.974 3.557c-.007.075-.023.146-.023.222 0 1.31 1.062 2.371 2.372 2.371 1.31 0 2.371-1.062 2.371-2.371-.003-.266-.05-.53-.142-.78l4.451-5.193c.884.163 1.784-.188 2.324-.906.54-.717.629-1.678.229-2.482-.4-.805-1.22-1.314-2.119-1.316M41.154 17.663L43.526 17.663 43.526 15.291 41.154 15.291zM45.897 17.663L63.684 17.663 63.684 15.291 45.897 15.291zM41.154 22.406L45.897 22.406 45.897 20.034 41.154 20.034zM48.269 22.406L57.755 22.406 57.755 20.034 48.269 20.034zM41.154 27.149L45.897 27.149 45.897 24.777 41.154 24.777z"/>
        <path fill="#697075" d="M72.184 54.397H2.816c-.408 0-.74-.332-.74-.74V8.696h70.849v44.96c0 .408-.333.74-.741.74M2.816 2.075h69.368c.402 0 .74.34.74.741v3.807H2.076V2.816c0-.402.34-.74.741-.74M72.184 0H2.816C1.263 0 0 1.263 0 2.816v50.84c0 1.553 1.263 2.816 2.816 2.816h69.368c1.553 0 2.816-1.263 2.816-2.816V2.816C75 1.263 73.737 0 72.184 0"/>
        <path fill="#697075" d="M6.899 4.254c0 .589-.477 1.066-1.066 1.066-.588 0-1.065-.477-1.065-1.066 0-.588.477-1.065 1.065-1.065.589 0 1.066.477 1.066 1.065M10.388 4.254c0 .589-.477 1.066-1.066 1.066-.588 0-1.065-.477-1.065-1.066 0-.588.477-1.065 1.065-1.065.589 0 1.066.477 1.066 1.065M13.729 4.254c0 .589-.477 1.066-1.066 1.066-.588 0-1.065-.477-1.065-1.066 0-.588.477-1.065 1.065-1.065.589 0 1.066.477 1.066 1.065"/>
    </g>
</svg>
