<svg xmlns="http://www.w3.org/2000/svg" xmlns:xlink="http://www.w3.org/1999/xlink" width="76" height="57" viewBox="0 0 76 57">
    <defs>
        <path id="prefix__a" d="M0 0L75.701 0 75.701 57 0 57z"/>
    </defs>
    <g fill="none" fill-rule="evenodd">
        <path fill="#0055FB" d="M30.108 17.681c-.651 0-1.18.53-1.18 1.181v9.111h-9.913v-9.111c0-.651-.53-1.18-1.18-1.18-.652 0-1.181.529-1.181 1.18v.453l-2.021-.673 2.334-2.996c.453-.58 1.135-.914 1.87-.914h1.485c.779 1.264 2.153 2.038 3.65 2.038 1.495 0 2.87-.774 3.648-2.038h1.485c.736 0 1.418.333 1.87.914l2.335 2.996-2.021.673v-.453c0-.651-.53-1.18-1.181-1.18m6.092.826l-3.362-4.314c-.903-1.159-2.264-1.824-3.733-1.824h-2.217c-.494 0-.94.312-1.11.776-.276.755-1.002 1.263-1.807 1.263-.804 0-1.53-.508-1.807-1.263-.17-.464-.615-.776-1.109-.776h-2.217c-1.47 0-2.83.665-3.733 1.824l-3.362 4.314c-.235.302-.31.701-.199 1.068.11.366.394.658.757.779l4.353 1.45v7.35c0 .65.53 1.18 1.18 1.18h12.274c.651 0 1.18-.53 1.18-1.18v-7.35l4.353-1.45c.364-.121.647-.413.758-.78.11-.365.036-.764-.2-1.067"/>
        <mask id="prefix__b" fill="#fff">
            <use xlink:href="#prefix__a"/>
        </mask>
        <path fill="#697075" d="M72.858 54.906H2.843c-.413 0-.748-.336-.748-.749V8.78h71.511v45.378c0 .413-.335.749-.748.749M2.843 2.094h70.015c.406 0 .748.343.748.749v3.842H2.095V2.843c0-.406.342-.749.748-.749M72.858 0H2.843C1.275 0 0 1.275 0 2.843v51.314C0 55.725 1.275 57 2.843 57h70.015c1.568 0 2.843-1.275 2.843-2.843V2.843C75.7 1.275 74.426 0 72.858 0" mask="url(#prefix__b)"/>
        <path fill="#697075" d="M6.963 4.294c0 .594-.481 1.075-1.075 1.075s-1.076-.48-1.076-1.075c0-.594.482-1.075 1.076-1.075.594 0 1.075.48 1.075 1.075M10.485 4.294c0 .594-.482 1.075-1.076 1.075-.593 0-1.075-.48-1.075-1.075 0-.594.482-1.075 1.075-1.075.594 0 1.076.48 1.076 1.075M13.857 4.294c0 .594-.482 1.075-1.075 1.075-.594 0-1.076-.48-1.076-1.075 0-.594.482-1.075 1.076-1.075.593 0 1.075.48 1.075 1.075M44.362 14.067h.026c.632 0 1.145.513 1.145 1.145v.026c0 .632-.513 1.145-1.145 1.145h-.026c-.633 0-1.145-.513-1.145-1.145v-.026c0-.632.512-1.145 1.145-1.145M48.993 14.067h11.605c.633 0 1.145.513 1.145 1.145v.026c0 .632-.512 1.145-1.145 1.145H48.993c-.632 0-1.145-.513-1.145-1.145v-.026c0-.632.513-1.145 1.145-1.145M44.362 20.195h18.552c.632 0 1.145.513 1.145 1.145v.026c0 .632-.513 1.145-1.145 1.145H44.362c-.633 0-1.145-.513-1.145-1.145v-.026c0-.632.512-1.145 1.145-1.145M44.362 26.323h16.236c.633 0 1.145.512 1.145 1.144v.026c0 .633-.512 1.145-1.145 1.145H44.362c-.633 0-1.145-.512-1.145-1.145v-.026c0-.632.512-1.144 1.145-1.144M55.664 49.415c3.69-.004 6.677-2.997 6.674-6.687-.003-3.255-2.352-6.033-5.56-6.58v2.274c2.38.615 3.813 3.044 3.197 5.426-.615 2.381-3.044 3.813-5.425 3.198-1.569-.405-2.793-1.63-3.198-3.198h-2.274c.547 3.211 3.328 5.562 6.586 5.567m0-8.907c-1.23 0-2.227.997-2.227 2.227s.997 2.226 2.227 2.226 2.227-.997 2.227-2.226c-.002-1.23-.998-2.226-2.227-2.227m-6.586 1.113h2.274c.408-1.567 1.631-2.79 3.199-3.199v-2.273c-2.8.478-4.994 2.672-5.473 5.472m6.586-7.793c4.919 0 8.907 3.988 8.907 8.907 0 4.919-3.988 8.906-8.907 8.906-4.92 0-8.907-3.987-8.907-8.906.006-4.917 3.99-8.902 8.907-8.907M23.377 46.075h-4.454c-.614 0-1.113-.499-1.113-1.114 0-.615.499-1.113 1.113-1.113h4.454c.615 0 1.113.498 1.113 1.113s-.498 1.114-1.113 1.114M12.243 48.301h11.134c.615 0 1.113.499 1.113 1.114 0 .614-.498 1.113-1.113 1.113H12.243c-.615 0-1.113-.499-1.113-1.113 0-.615.498-1.114 1.113-1.114M23.377 37.168h-4.454c-.614 0-1.113-.499-1.113-1.114 0-.615.499-1.113 1.113-1.113h4.454c.615 0 1.113.498 1.113 1.113s-.498 1.114-1.113 1.114M12.243 39.394h11.134c.615 0 1.113.499 1.113 1.114 0 .615-.498 1.113-1.113 1.113H12.243c-.615 0-1.113-.498-1.113-1.113s.498-1.114 1.113-1.114M41.19 46.075h-4.453c-.615 0-1.113-.499-1.113-1.114 0-.615.498-1.113 1.113-1.113h4.453c.615 0 1.114.498 1.114 1.113s-.499 1.114-1.114 1.114M30.057 48.301H41.19c.615 0 1.114.499 1.114 1.114 0 .614-.499 1.113-1.114 1.113H30.057c-.615 0-1.113-.499-1.113-1.113 0-.615.498-1.114 1.113-1.114M41.19 37.168h-4.453c-.615 0-1.113-.499-1.113-1.114 0-.615.498-1.113 1.113-1.113h4.453c.615 0 1.114.498 1.114 1.113s-.499 1.114-1.114 1.114M30.057 39.394H41.19c.615 0 1.114.499 1.114 1.114 0 .615-.499 1.113-1.114 1.113H30.057c-.615 0-1.113-.498-1.113-1.113s.498-1.114 1.113-1.114"/>
    </g>
</svg>
