<svg xmlns="http://www.w3.org/2000/svg" xmlns:xlink="http://www.w3.org/1999/xlink" width="76" height="57" viewBox="0 0 76 57">
    <defs>
        <path id="prefix__a" d="M0 0L75.701 0 75.701 57 0 57z"/>
    </defs>
    <g fill="none" fill-rule="evenodd">
        <mask id="prefix__b" fill="#fff">
            <use xlink:href="#prefix__a"/>
        </mask>
        <path fill="#697075" d="M48.796 21.179h5.513v-3.725h-5.513v3.725zm5.738-5.366H48.57c-.781 0-1.417.635-1.417 1.416v4.174c0 .782.636 1.417 1.417 1.417h5.963c.781 0 1.417-.635 1.417-1.417V17.23c0-.78-.636-1.416-1.417-1.416zM54.534 24.013H48.57c-.452 0-.82.368-.82.82 0 .453.368.821.82.821h5.963c.452 0 .82-.368.82-.82 0-.453-.368-.821-.82-.821M54.534 26.847H48.57c-.452 0-.82.368-.82.82 0 .453.368.821.82.821h5.963c.452 0 .82-.368.82-.82 0-.453-.368-.821-.82-.821M38.507 21.179h5.514v-3.725h-5.514v3.725zm5.738-5.366h-5.962c-.782 0-1.417.635-1.417 1.416v4.174c0 .782.635 1.417 1.417 1.417h5.962c.782 0 1.417-.635 1.417-1.417V17.23c0-.78-.635-1.416-1.417-1.416zM44.245 24.013h-5.962c-.453 0-.821.368-.821.82 0 .453.368.821.82.821h5.963c.453 0 .821-.368.821-.82 0-.453-.368-.821-.82-.821M44.245 26.847h-5.962c-.453 0-.821.368-.821.82 0 .453.368.821.82.821h5.963c.453 0 .821-.368.821-.82 0-.453-.368-.821-.82-.821M59.084 21.179h5.514v-3.725h-5.514v3.725zm5.738-5.366H58.86c-.78 0-1.416.635-1.416 1.416v4.174c0 .782.635 1.417 1.416 1.417h5.963c.782 0 1.417-.635 1.417-1.417V17.23c0-.78-.635-1.416-1.417-1.416zM64.822 24.013H58.86c-.453 0-.821.368-.821.82 0 .453.368.821.82.821h5.963c.453 0 .82-.368.82-.82 0-.453-.367-.821-.82-.821M64.822 26.847H58.86c-.453 0-.821.368-.821.82 0 .453.368.821.82.821h5.963c.453 0 .82-.368.82-.82 0-.453-.367-.821-.82-.821M54.534 29.542H48.57c-.452 0-.82.369-.82.821 0 .453.368.82.82.82h5.963c.452 0 .82-.367.82-.82 0-.452-.368-.82-.82-.82M44.245 29.542h-5.962c-.453 0-.821.369-.821.821 0 .453.368.82.82.82h5.963c.453 0 .821-.367.821-.82 0-.452-.368-.82-.82-.82M64.822 29.542H58.86c-.453 0-.821.369-.821.821 0 .453.368.82.82.82h5.963c.453 0 .82-.367.82-.82 0-.452-.367-.82-.82-.82" mask="url(#prefix__b)"/>
        <path fill="#697075" d="M72.858 54.906H2.842c-.412 0-.748-.336-.748-.748V8.778h71.512v45.38c0 .412-.335.748-.748.748M2.842 2.095h70.016c.406 0 .748.342.748.748v3.841H2.094V2.843c0-.406.343-.748.748-.748M72.858 0H2.842C1.275 0 0 1.275 0 2.843v51.315C0 55.725 1.275 57 2.842 57h70.016c1.568 0 2.843-1.275 2.843-2.842V2.843C75.7 1.275 74.426 0 72.858 0" mask="url(#prefix__b)"/>
        <path fill="#697075" d="M6.963 4.294c0 .594-.481 1.075-1.075 1.075s-1.076-.481-1.076-1.075.482-1.075 1.076-1.075c.594 0 1.075.481 1.075 1.075M10.485 4.294c0 .594-.481 1.075-1.075 1.075-.595 0-1.076-.481-1.076-1.075s.481-1.075 1.076-1.075c.594 0 1.075.481 1.075 1.075M13.857 4.294c0 .594-.482 1.075-1.075 1.075-.594 0-1.076-.481-1.076-1.075s.482-1.075 1.076-1.075c.593 0 1.075.481 1.075 1.075" mask="url(#prefix__b)"/>
        <path fill="#0055FB" d="M30.542 17.812l-2.076 7.267H18.02l-1.615-7.267h14.137zm-2.646 14.223c-.365 0-.662-.297-.662-.662 0-.365.297-.662.662-.662.365 0 .662.297.662.662 0 .365-.297.662-.662.662zm-9.354 0c-.365 0-.662-.297-.662-.662 0-.365.297-.662.662-.662.365 0 .662.297.662.662 0 .365-.297.662-.662.662zm-7.943-16.87h3.17l2.274 10.233c-.705.414-1.148 1.174-1.148 2.004 0 1.183.889 2.16 2.034 2.303-.437.423-.71 1.014-.71 1.668 0 1.281 1.042 2.324 2.323 2.324s2.323-1.043 2.323-2.324c0-.643-.263-1.227-.688-1.648h6.084c-.425.421-.688 1.005-.688 1.648 0 1.281 1.042 2.324 2.323 2.324s2.324-1.043 2.324-2.324c0-.665-.283-1.265-.733-1.688.421-.118.733-.501.733-.96 0-.55-.449-.999-1-.999H17.218c-.179 0-.324-.145-.324-.324 0-.178.145-.324.323-.324v-.338.338H29.22c.444 0 .839-.298.961-.725l2.647-9.266c.086-.3.025-.627-.163-.877-.188-.249-.486-.397-.798-.397H15.961l-.415-1.865c-.102-.46-.503-.783-.975-.783h-3.972c-.55 0-.999.449-.999 1 0 .55.448 1 1 1z" mask="url(#prefix__b)"/>
        <path fill="#697075" d="M46.976 42.43c.661 0 1.197.535 1.197 1.196 0 .661-.536 1.197-1.197 1.197-.66 0-1.197-.536-1.197-1.197 0-.66.536-1.197 1.197-1.197M17.055 42.43h25.134c.66 0 1.197.535 1.197 1.196 0 .661-.536 1.197-1.197 1.197H17.055c-.661 0-1.197-.536-1.197-1.197 0-.66.536-1.197 1.197-1.197M17.055 37.642h11.968c.661 0 1.197.536 1.197 1.197 0 .66-.536 1.197-1.197 1.197H17.055c-.661 0-1.197-.536-1.197-1.197s.536-1.197 1.197-1.197M51.842 42.43h7.181c.661 0 1.197.535 1.197 1.196 0 .661-.536 1.197-1.197 1.197h-7.18c-.662 0-1.198-.536-1.198-1.197 0-.66.536-1.197 1.197-1.197M33.574 37.642h16.457c.661 0 1.197.536 1.197 1.197 0 .66-.536 1.197-1.197 1.197H33.574c-.66 0-1.197-.536-1.197-1.197s.536-1.197 1.197-1.197M17.055 47.237h16.457c.66 0 1.196.536 1.196 1.197s-.535 1.197-1.196 1.197H17.055c-.661 0-1.197-.536-1.197-1.197 0-.66.536-1.197 1.197-1.197" mask="url(#prefix__b)"/>
    </g>
</svg>
